<?xml version="1.0" ?><svg viewBox="0 0 32 32" xmlns="http://www.w3.org/2000/svg"><defs><style>.cls-1{fill:#0593ff;}.cls-2{fill:#0e6ae0;}.cls-3{fill:#d8e1ef;}</style></defs><title/><g data-name="File Shield" id="File_Shield"><path class="cls-1" d="M9,4H5A3,3,0,0,0,2,7v6a1,1,0,0,0,1,1H7a1,1,0,0,0,1-1V7.25L9,7Z"/><rect class="cls-2" height="10" width="1" x="5" y="4"/><path class="cls-3" d="M24,7V28H11a5.14,5.14,0,0,1-5-5.18V4H21A3,3,0,0,1,24,7Z"/><path class="cls-1" d="M28.57,23a1,1,0,0,1,.92,1.41,6,6,0,0,1-1.24,1.83A6,6,0,0,1,24,28H11a6,6,0,0,0,5.76-4.31,1,1,0,0,1,.95-.69Z"/><path class="cls-1" d="M19,10a3.39,3.39,0,0,1-3.11-1.46A1,1,0,0,0,15,8a1,1,0,0,0-.9.53A3.38,3.38,0,0,1,11,10a1,1,0,0,0-1,1v2.53A5,5,0,0,0,12.76,18l1.79.89a1,1,0,0,0,.9,0L17.24,18A5,5,0,0,0,20,13.53V11A1,1,0,0,0,19,10Z"/></g></svg>