<svg id="tns-icon" xmlns="http://www.w3.org/2000/svg" viewBox="0 0 540 619.67"><defs><style>.cls-1{fill:#f1c90e;}</style></defs><title>tns-logo-v3</title><path class="cls-1" d="M153,358.6V329.83h51.8a23,23,0,0,0,0-46H153V65.61L263.74,1.67a12.55,12.55,0,0,1,12.52,0L337.62,37.1l-66,38.12h0L261.5,81.06h-.06L254.63,85h-.08a90.34,90.34,0,0,0-7.87,5.59h0A93.73,93.73,0,0,0,211,162.83h0v2.7A93.45,93.45,0,0,0,240.85,233c8.18,8.83,97.88,59.4,97.88,59.4l.91.53A95.31,95.31,0,0,1,352.4,448.6h0a95.06,95.06,0,0,1-19,12.27l-.17.08A123.53,123.53,0,0,1,153,358.6Z" transform="translate(0 0)"/><path class="cls-1" d="M540,161.17V458.49a12.53,12.53,0,0,1-6.26,10.84L276.26,618a12.55,12.55,0,0,1-12.52,0L6.26,469.33A12.53,12.53,0,0,1,0,458.49V161.17a12.53,12.53,0,0,1,6.26-10.84L108.2,91.47V354.15A168.86,168.86,0,0,0,357.45,500.46h0a141.8,141.8,0,0,0,22-14.27l.14-.11a141.07,141.07,0,0,0-11.9-229.73c-.44-.38-5.61-3.54-5.61-3.54l-11.41-6.58-67.49-39a47.34,47.34,0,0,1-5.22-3A48.06,48.06,0,0,1,256.77,169c-.07-.76-.13-1.52-.17-2.28a11.48,11.48,0,0,0-.05-1.31,11.45,11.45,0,0,1,0-1.31c0-.78,0-1.55.06-2.32.06-1.37.21-2.71.38-4v-.22l.09-.63v-.09c.11-.73.24-1.46.39-2.17a47.9,47.9,0,0,1,21.28-31l3.61-2.08,9.75-5.63L336.75,90.2l6.56-3.78,7-4.06,1.9-1.1h0L383,63.47l150.72,86.86A12.53,12.53,0,0,1,540,161.17Z" transform="translate(0 0)"/></svg>